<?xml version="1.0" encoding="utf-8"?>
<!-- Generator: Adobe Illustrator 24.1.2, SVG Export Plug-In . SVG Version: 6.00 Build 0)  -->
<svg version="1.1" id="Layer_1" xmlns="http://www.w3.org/2000/svg" xmlns:xlink="http://www.w3.org/1999/xlink" x="0px" y="0px"
	 viewBox="0 0 1133.86 1133.86" style="enable-background:new 0 0 1133.86 1133.86;" xml:space="preserve">
<style type="text/css">
	.st0{fill:url(#SVGID_1_);}
</style>
<g>
	<linearGradient id="SVGID_1_" gradientUnits="userSpaceOnUse" x1="70.8661" y1="566.9291" x2="1046.1193" y2="566.9291">
		<stop  offset="0" style="stop-color:#BC13FE"/>
		<stop  offset="0.2487" style="stop-color:#8043DC"/>
		<stop  offset="0.5017" style="stop-color:#496EBD"/>
		<stop  offset="0.7205" style="stop-color:#218EA7"/>
		<stop  offset="0.8938" style="stop-color:#09A199"/>
		<stop  offset="1" style="stop-color:#00A894"/>
	</linearGradient>
	<path class="st0" d="M566.93,70.87c-273.97,0-496.06,222.1-496.06,496.06s222.09,496.06,496.06,496.06
		c273.97,0,496.06-222.09,496.06-496.06S840.9,70.87,566.93,70.87z M825.73,635.71c0,0-19.32,154.28-74.48,160.87
		c-83.25,9.96-141.25-49.62-200.03,115.57H306.04l19.24-37.66c25.24-49.42,75.24-84.69,128.04-90.34l71.66-7.66H487.5
		c-144.52,0-241.01-117.15-215.53-261.67l44.7-253.48c3.86-21.89,24.73-39.63,46.61-39.63c21.89,0,36.5,17.74,32.64,39.63
		l-44.7,253.48c-17.76,100.74,49.5,182.41,150.25,182.41h70.29c21.89,0,42.75-17.74,46.61-39.63v0
		c3.86-21.89-10.75-39.63-32.64-39.63l-103.5,0.01c-21.89,0-36.5-17.74-32.64-39.63l0,0c3.86-21.88,24.73-39.63,46.61-39.63
		l190.11,0c21.88,0,42.75-17.74,46.61-39.63v0c3.86-21.89-10.75-39.63-32.64-39.63l-220.42,0c-22.76,0-37.65-19.18-32.09-42.26
		c5.08-21.06,26.31-36.99,47.42-36.99h132.46c22.76,0,44.42-19.18,46.99-42.26c2.35-21.06-13.27-36.99-34.38-36.99H508.13l0-0.02
		h-0.35c-22.75,0-37.65-19.18-32.08-42.26c5.08-21.06,26.31-36.98,47.41-36.98h35.53c22.47,0,47.99,1.17,74.14,4.63
		c24.33,3.2,49.27,8.4,72.92,16.45c48.4,16.5,91.52,45.03,113.6,93.23c68.59,150.04-62.09,146.36,45.58,249.37
		C864.87,585.4,876.27,614.06,825.73,635.71z"/>
</g>
</svg>
